<?xml version="1.0" encoding="UTF-8" standalone="no"?>
<svg width="80" height="40" viewBox="0 0 80 40" version="1.1" xmlns="http://www.w3.org/2000/svg" xmlns:svg="http://www.w3.org/2000/svg">
  <path style="fill:none;stroke:#000000;stroke-width:1.765;stroke-linecap:round;stroke-linejoin:round" d="m 43.601547,26.941584 c 3.06921,7.10097 10.43705,11.34381 18.11926,10.43414 7.68221,-0.90967 13.85539,-6.75593 15.18127,-14.37734 1.32588,-7.62142 -2.5102,-15.2089796 -9.43384,-18.6596296 -6.92365,-3.45065003 -15.2915,-1.94534 -20.57851,3.70192 -2.29558,2.3656496 -3.44694,5.2830996 -9.23299,5.2395896 -1.32074,-0.01 -0.78651,0.0435 -1.32018,0.0435 0.55623,0 0.95367,-0.0541 1.32018,-0.0435 l 1.50543,0.0435 c 1.49199,0.0431 2.18688,1.32942 1.63101,3.40394 l -1.99392,7.4414 c -0.52161,1.94669 -2.56352,2.4623 -4.11957,2.41433 -1.57855,-0.0487 -3.14065,-0.86877 -2.69993,-2.51354 l 4.19166,-15.6434896 c 0.43084,-1.60793 1.2177,-3.3073 2.96978,-3.3073 1.3405,0 1.75622,1.46862 1.28127,3.24115 -0.29937,1.11727 -0.80154,2.1655196 -1.71474,2.9434896 l -3.29988,2.8112 c -0.72397,0.61676 -1.09589,1.25106 -1.49475,2.73963 l -1.62698,6.07196 c -0.60879,2.27204 -1.56833,3.59084 -3.422,3.62939 -1.63773,0.0341 -2.37781,-1.07435 -1.95808,-2.6408 l 2.83794,-10.59136 -2.83806,10.59179 c -0.70748,2.64038 -2.34647,2.64038 -3.37383,2.64473 h -1.49754 c -2.12453,0 -2.14237,-1.95429 -1.80127,-3.22728 l 2.68197,-10.00924 -2.26227,8.44289 c -1.20598,4.84384 -2.81067,4.78927 -6.52004,4.78927 -1.61512,0 -2.94273,1.25153 -3.85673,2.05053 -0.9032005,0.78955 -1.4153805,1.82622 -1.7147505,2.94349 -0.47495,1.77253 -0.0592,3.24114 1.28128,3.24114 1.7520805,0 2.5389305,-1.69936 2.9697805,-3.30729 l 4.86596,-18.16003 -2.83984,10.53672 c -0.31664,1.12535 -1.93956,2.69545 -3.41768,2.69545 H 9.8334565 c -1.49262,0 -2.19857,-1.29892 -1.64271,-3.37344 l 1.9939205,-7.44141 c 0.52161,-1.94668 2.56353,-2.46229 4.11957,-2.41432 1.57856,0.0487 3.14065,0.86877 2.69994,2.51354 -0.94319,3.52002 -4.48199,6.04572 -14.1659505,6.04572" />
</svg>
